<svg xmlns="http://www.w3.org/2000/svg" viewBox="0 0 1600 900" width="1600" height="900"><defs><radialGradient id="g" cx="50%" cy="40%" r="58%"><stop offset="0" stop-color="#3ED694" stop-opacity="0.02"/><stop offset="1" stop-color="#3ED694" stop-opacity="0"/></radialGradient><linearGradient id="s" x1="0" y1="0" x2="1" y2="1"><stop offset="0" stop-color="#0A1B15"/><stop offset="1" stop-color="#061410"/></linearGradient></defs><rect x="0" y="0" width="1600" height="900" rx="0" fill="#04100C" opacity="1"/><rect x="0" y="0" width="1600" height="900" rx="0" fill="url(#g)" opacity="1"/><rect x="0" y="772" width="1600" height="128" rx="0" fill="#080F0C" opacity="1"/><rect x="0" y="772" width="1600" height="1" rx="0" fill="rgba(62,214,148,0.01)" opacity="1"/><ellipse cx="800" cy="804" rx="640" ry="52" fill="#3ED694" opacity="0.01"/><rect x="48" y="44" width="1504" height="704" rx="12" fill="#050D0A" opacity="1" stroke="rgba(120,200,170,.25)" stroke-width="1"/><rect x="62" y="58" width="1476" height="676" rx="6" fill="url(#s)" opacity="1"/><path d="M736 748 L864 748 L884 760 L716 760 Z" fill="#0A1512"/><rect x="64" y="694" width="116" height="180" rx="12" fill="#060F0C" opacity="1" stroke="rgba(120,200,170,.25)" stroke-width="1"/><path d="M1410 710 L1424 782 Q1426 794 1438 794 L1478 794 Q1490 794 1492 782 L1506 710 Z" fill="#0E1C17" stroke="rgba(200,230,215,.2)"/></svg>